<svg width="12" height="12" viewBox="0 0 12 12" fill="none" xmlns="http://www.w3.org/2000/svg">
<path fill-rule="evenodd" clip-rule="evenodd" d="M3.5 1.5C3.5 0.671573 4.17157 0 5 0H7C7.82843 0 8.5 0.671573 8.5 1.5V2H11.5C11.7761 2 12 2.22386 12 2.5V2.5C12 2.77614 11.7761 3 11.5 3H10.4475L9.54636 11.1104C9.49009 11.6169 9.06203 12 8.55248 12H3.44752C2.93797 12 2.50991 11.6169 2.45364 11.1104L1.55248 3H0.5C0.223858 3 0 2.77614 0 2.5V2.5C0 2.22386 0.223858 2 0.5 2H3.5V1.5ZM4.5 2H7.5V1.5C7.5 1.22386 7.27614 1 7 1H5C4.72386 1 4.5 1.22386 4.5 1.5V2ZM2.55863 3L3.44752 11H8.55248L9.44137 3H2.55863ZM5 8.5C4.72386 8.5 4.5 8.27614 4.5 8V5C4.5 4.72386 4.72386 4.5 5 4.5V4.5C5.27614 4.5 5.5 4.72386 5.5 5V8C5.5 8.27614 5.27614 8.5 5 8.5V8.5ZM7 8.5C6.72386 8.5 6.5 8.27614 6.5 8V5C6.5 4.72386 6.72386 4.5 7 4.5V4.5C7.27614 4.5 7.5 4.72386 7.5 5V8C7.5 8.27614 7.27614 8.5 7 8.5V8.5Z" fill="white"/>
</svg>
