<svg width="12" height="12" viewBox="0 0 12 12" fill="none" xmlns="http://www.w3.org/2000/svg">
<path fill-rule="evenodd" clip-rule="evenodd" d="M10.4142 1C10.2816 1 10.1544 1.05268 10.0607 1.14645L4.74527 6.46184C4.55303 6.65408 4.41665 6.89495 4.35071 7.1587L4.18718 7.81282L4.8413 7.64929C5.10505 7.58335 5.34592 7.44697 5.53816 7.25473L10.8536 1.93934C10.9473 1.84557 11 1.71839 11 1.58579V1.5C11 1.22386 10.7761 1 10.5 1H10.4142ZM9.35355 0.43934C9.63486 0.158035 10.0164 0 10.4142 0H10.5C11.3284 0 12 0.671573 12 1.5V1.58579C12 1.98361 11.842 2.36514 11.5607 2.64645L6.24527 7.96184C5.92487 8.28224 5.52342 8.50953 5.08384 8.61943L2.81282 9.18718L3.38057 6.91616C3.49047 6.47658 3.71776 6.07513 4.03816 5.75473L9.35355 0.43934ZM0 3.5C0 2.11929 1.11929 1 2.5 1H6.5C6.77614 1 7 1.22386 7 1.5C7 1.77614 6.77614 2 6.5 2H2.5C1.67157 2 1 2.67157 1 3.5V9.5C1 10.3284 1.67157 11 2.5 11H8.5C9.32843 11 10 10.3284 10 9.5V5.5C10 5.22386 10.2239 5 10.5 5C10.7761 5 11 5.22386 11 5.5V9.5C11 10.8807 9.88071 12 8.5 12H2.5C1.11929 12 0 10.8807 0 9.5V3.5Z" fill="white"/>
</svg>
